<?xml version="1.0" encoding="utf-8"?>
<svg version="1.1" id="Слой_1" xmlns="http://www.w3.org/2000/svg" xmlns:xlink="http://www.w3.org/1999/xlink" viewBox="0 0 500 500" xml:space="preserve">
<style type="text/css">
	.st0{fill:#78C2FF;}
	.st1{fill:#4DA8F2;}
	.st2{fill:#BBD070;}
	.st3{fill:#97A43C;}
	.st4{fill:#48753A;}
	.st5{fill:#E4F3FF;}
	.st6{fill:#4392D1;}
	.st7{fill:#0E2D3D;}
	.st8{fill:#1A598C;}
	.st9{fill:#2273B5;}
	.st10{fill:#EEA886;}
	.st11{fill:#5377B3;}
	.st12{fill:#5B83C2;}
	.st13{fill:#2F4563;}
	.st14{fill:#354C70;}
	.st15{fill:#2B3B57;}
	.st16{fill:#D4D8E8;}
	.st17{fill:#E55353;}
	.st18{fill:#353A3D;}
	.st19{fill:#1A598C;opacity:0.8;}
	.st20{fill:#3D8ED1;}
	.st21{fill:#E3F2FF;}
	.st22{fill:#163342;}
	.st23{fill:#1D3B54;}
	.st24{fill:#FF7E55;}
	.st25{fill:#183C59;}
	.st26{fill:#616161;}
	.st27{fill:#E0CEC7;}
	.st28{fill:#A77860;}
	.st29{fill:#FFD255;}
	.st30{fill:#5CAAEB;}
	.st31{fill:#4DA8F2;opacity:0.3;}
	.st32{fill:#4DA8F2;opacity:0.82;}
</style>
<g>
	<rect x="0" y="0" fill="#FFFFFF" width="500" height="500"/>
	<g>
		<path class="st0" d="M264.6,94.5c-0.7-2.9-1.9-5.6-3.3-8.1l3.4-5.1l-4.7-4.7l-4.7-4.7l-5.1,3.4c-2.5-1.5-5.2-2.6-8.1-3.3l-1.2-6.0
			h-6.7h-6.7l-1.2,6.0c-2.9,0.7-5.6,1.9-8.1,3.3l-5.1-3.4l-4.7,4.7l-4.7,4.7l3.4,5.1c-1.5,2.5-2.6,5.2-3.3,8.1l-6.0,1.2v6.7v6.7
			l6.0,1.2c0.7,2.9,1.9,5.6,3.3,8.1l-3.4,5.1l4.7,4.7l4.7,4.7l5.1-3.4c2.5,1.5,5.2,2.6,8.1,3.3l1.2,6.0h6.7h6.7l1.2-6.0
			c2.9-0.7,5.6-1.9,8.1-3.3l5.1,3.4l4.7-4.7l4.7-4.7l-3.4-5.1c1.5-2.5,2.6-5.2,3.3-8.1l6.0-1.2v-6.7v-6.7L264.6,94.5z M234.1,125.8
			c-12.9,0-23.4-10.5-23.4-23.4s10.5-23.4,23.4-23.4s23.4,10.5,23.4,23.4S247.1,125.8,234.1,125.8z"/>
	</g>
	<g>
		<path class="st0" d="M217.6,185.7h-97c-4.8,0-8.8-3.9-8.8-8.8v-66.7c0-4.8,3.9-8.8,8.8-8.8h97c4.8,0,8.8,3.9,8.8,8.8v66.7
			C226.4,181.7,222.5,185.7,217.6,185.7z M120.6,102c-4.5,0-8.2,3.7-8.2,8.2v66.7c0,4.5,3.7,8.2,8.2,8.2h97c4.5,0,8.2-3.7,8.2-8.2
			v-66.7c0-4.5-3.7-8.2-8.2-8.2H120.6z"/>
	</g>
	<g>
		<rect x="138.7" y="146.3" class="st0" width="0.9" height="107.5"/>
	</g>
	<g>
		<path class="st1" d="M353.8,367.8h-6.1v-1h6.1V367.8z M341.6,367.8h-6.1v-1h6.1V367.8z M329.3,367.8h-6.1v-1h6.1V367.8z M317.1,367.8
			h-6.1v-1h6.1V367.8z M304.9,367.8h-6.1v-1h6.1V367.8z M292.7,367.8h-6.1v-1h6.1V367.8z M280.5,367.8h-6.1v-1h6.1V367.8z
			M268.2,367.8h-6.1v-1h6.1V367.8z M256,367.8h-6.1v-1h6.1V367.8z M243.8,367.8h-6.1v-1h6.1V367.8z M231.6,367.8h-6.1v-1h6.1V367.8
			z M219.4,367.8h-6.1v-1h6.1V367.8z M207.2,367.8h-6.1v-1h6.1V367.8z M194.9,367.8h-6.1v-1h6.1V367.8z M182.7,367.8h-6.1v-1h6.1
			V367.8z M360,367.7l-0.2-1c1.9-0.3,3.8-1.1,5.3-2.3l0.6,0.8C364.1,366.5,362.1,367.4,360,367.7z M170.4,366.7
			c-1.9-0.9-3.6-2.3-4.8-4.1l0.8-0.6c1.1,1.6,2.7,2.9,4.4,3.7L170.4,366.7z M369.5,360.1l-0.9-0.4c0.6-1.4,0.8-2.8,0.8-4.3v-1.5h1.0
			v1.5C370.4,357.1,370.1,358.6,369.5,360.1z M163.4,356.7c0-0.4,0-0.8,0-1.2v-4.9h1.0v4.9c0,0.4,0,0.8,0.1,1.1L163.4,356.7z
			M370.4,347.8h-1.0v-6.1h1.0V347.8z M164.4,344.4h-1.0v-6.1h1.0V344.4z M370.4,335.6h-1.0v-6.1h1.0V335.6z M164.4,332.2h-1.0v-6.1
			h1.0V332.2z M370.4,323.4h-1.0v-6.1h1.0V323.4z M164.4,320h-1.0v-6.1h1.0V320z M370.4,311.2h-1.0v-6.1h1.0V311.2z M164.4,307.8
			h-1.0v-6.1h1.0V307.8z M370.4,298.9h-1.0v-6.1h1.0V298.9z M164.4,295.6h-1.0v-6.1h1.0V295.6z M370.4,286.7h-1.0v-6.1h1.0V286.7z
			M164.4,283.3h-1.0v-6.1h1.0V283.3z M370.4,274.5h-1.0v-6.1h1.0V274.5z M164.4,271.1h-1.0v-6.1h1.0V271.1z M370.4,262.3h-1.0v-6.1
			h1.0V262.3z M164.4,258.9h-1.0v-6.1h1.0V258.9z M370.4,250.1h-1.0v-6.1h1.0V250.1z M164.4,246.7h-1.0v-6.1h1.0V246.7z
			M370.4,237.9h-1.0v-6.1h1.0V237.9z M164.4,234.5h-1.0v-6.1h1.0V234.5z M370.4,225.6h-1.0v-6.1h1.0V225.6z M164.4,222.2h-1.0v-6.1
			h1.0V222.2z M370.4,213.4h-1.0v-6.1h1.0V213.4z M164.4,210h-1.0v-6.1h1.0V210z M370.4,201.2h-1.0v-6.1h1.0V201.2z M164.4,197.8
			h-1.0v-6.1h1.0V197.8z M370.4,189h-1.0v-6.1h1.0V189z M164.4,185.6h-1.0v-6.1h1.0V185.6z M370.4,176.8h-1.0v-6.1h1.0V176.8z
			M164.4,173.4h-1.0v-6.1h1.0V173.4z M370.4,164.5h-1.0v-6.1h1.0V164.5z M164.4,161.1h-1.0v-6.1h1.0V161.1z M370.4,152.3h-1.0v-6.1
			h1.0V152.3z M164.4,148.9h-1.0v-6.1h1.0V148.9z M370.4,140.1h-1.0v-6.1h1.0V140.1z M164.4,136.7h-1.0v-6.1h1.0V136.7z
			M370.4,127.9h-1.0v-6.1h1.0V127.9z M164.4,124.5h-1.0v-6.1h1.0V124.5z M370.4,115.7h-1.0v-6.1c0-0.8,0-1.5-0.2-2.2l1-0.2
			c0.2,0.8,0.2,1.6,0.2,2.4V115.7z M164.4,112.3h-1.0v-2.7c0-1.2,0.2-2.4,0.5-3.5l1,0.3c-0.3,1-0.5,2.1-0.5,3.2V112.3z M366.6,102.1
			c-1.3-1.5-2.9-2.6-4.8-3.3l0.3-1c2,0.7,3.8,1.9,5.2,3.6L366.6,102.1z M167.8,101.4l-0.7-0.7c1.5-1.5,3.4-2.6,5.5-3.1l0.3,1
			C171,99.1,169.2,100,167.8,101.4z M356,98.2h-6.1v-1h6.1V98.2z M343.8,98.2h-6.1v-1h6.1V98.2z M331.6,98.2h-6.1v-1h6.1V98.2z
			M319.3,98.2h-6.1v-1h6.1V98.2z M307.1,98.2h-6.1v-1h6.1V98.2z M294.9,98.2h-6.1v-1h6.1V98.2z M282.7,98.2h-6.1v-1h6.1V98.2z
			M270.5,98.2h-6.1v-1h6.1V98.2z M258.2,98.2h-6.1v-1h6.1V98.2z M246,98.2h-6.1v-1h6.1V98.2z M233.8,98.2h-6.1v-1h6.1V98.2z
			M221.6,98.2h-6.1v-1h6.1V98.2z M209.4,98.2h-6.1v-1h6.1V98.2z M197.1,98.2h-6.1v-1h6.1V98.2z M184.9,98.2h-6.1v-1h6.1V98.2z"/>
	</g>
	<g>
		<g>
			<path class="st2" d="M321.3,105.7c0,0,27.7,22.9,16.4,43c-11.3,20.1-18.4,3.7-18.4,3.7s-8.4,3.2,2.7-21.4
				C327.2,119.4,321.3,105.7,321.3,105.7z"/>
		</g>
		<g>
			<path class="st3" d="M367.4,75.6c0,0,21.4,21.9-2.8,56c-24.3,34.1-19,50.8-19,50.8S304.8,129,367.4,75.6z"/>
		</g>
		<g>
			<path class="st4" d="M338.1,172.6c-12.2,3.3-3.9-32.7,13.9-44.9c17.7-12.2,34.2-14.4,43.8-25.7
				C395.8,102.1,398,156.1,338.1,172.6z"/>
		</g>
	</g>
	<g>
		<path class="st5" d="M356.9,129.7v245.9c0,6.6-5.3,11.9-11.9,11.9H162.7c-6.6,0-11.9-5.3-11.9-11.9V129.7c0-6.6,5.3-11.9,11.9-11.9
			h182.3C351.6,117.8,356.9,123.1,356.9,129.7z"/>
	</g>
	<g>
		<path class="st6" d="M323.3,312.4v75.1H206.8v-74.2c0-3.9,3.2-7.1,7.1-7.1h103.2C320.5,306.2,323.3,309,323.3,312.4z"/>
	</g>
	<g>
		<path class="st7" d="M96.1,285.7c0,0,4.7,2.3,3.6,8.6c-1.2,6.3-1.7,7.2-0.4,9.6c1.3,2.5,2.9,13,1.7,15c-1.2,2-14.6-8.8-16.5-17.8
			c-1.9-9,1.2-13,2.3-14.5C87.8,285.1,91.9,283.6,96.1,285.7z"/>
	</g>
	<g>
		<polygon class="st0" points="119.9,278 104.7,278 104.7,289 104.7,291.3 107,289 119.9,289 		"/>
	</g>
	<g>
		<g>
			<path class="st0" d="M190.6,287.5c2.5,0.9,5.2,1.3,8,1.4c8.5,0.1,16.1-3.9,20.9-10.1c3.4-4.3,5.4-9.7,5.4-15.6
				c0-0.6,0-1.2,0-1.7c-0.1-2.6-0.7-5.1-1.5-7.5c-3.6-9.9-13-17-24.1-17.1c-6-0.1-11.6,1.9-16,5.2c-6.2,4.7-10.3,12.1-10.4,20.5
				C172.8,274,180.2,283.9,190.6,287.5z M179.4,262.6c0.1-6.2,3.1-11.8,7.7-15.3c3.4-2.6,7.6-4.1,12.1-4c8.4,0.1,15.4,5.4,18.1,12.9
				l0,0c0.6,1.8,1,3.6,1.1,5.6c0,0.4,0,0.9,0,1.3c-0.1,4.4-1.6,8.5-4.1,11.7c-3.6,4.7-9.3,7.7-15.7,7.6c-2.1,0-4.1-0.4-6-1
				C184.9,278.7,179.3,271.2,179.4,262.6z"/>
		</g>
		<g>
			<path class="st8" d="M214.4,274.8l5.2,4c-4.8,6.2-12.4,10.2-20.9,10.1c-2.8,0-5.5-0.5-8-1.4l2.1-6.2c1.9,0.6,3.9,1,6,1
				C205.1,282.4,210.8,279.4,214.4,274.8z"/>
		</g>
		<g>
			<path class="st9" d="M218.5,261.7l6.5-0.4c0,0.6,0,1.2,0,1.7c-0.1,5.9-2.1,11.3-5.4,15.6l-5.2-4c2.5-3.2,4-7.3,4.1-11.7
				C218.5,262.2,218.5,261.7,218.5,261.7z"/>
		</g>
		<g>
			<path class="st9" d="M218.5,261.7c-0.1-2-0.5-3.8-1.1-5.6l0,0l6.1-2.2c0.9,2.4,1.4,4.9,1.5,7.5L218.5,261.7z"/>
		</g>
		<g>
			<path class="st1" d="M183.3,242c4.4-3.4,10-5.3,16-5.2c11.1,0.1,20.6,7.3,24.1,17.1l-6.1,2.2l0,0c-2.7-7.4-9.8-12.8-18.1-12.9
				c-4.5-0.1-8.7,1.4-12.1,4L183.3,242z"/>
		</g>
	</g>
	<path class="st1" d="M189.6,297.7c-1.7-2.2-4.3-3.7-7.3-3.7c-4.1,0-7.6,2.6-8.9,6.3c0,0.9-0.2,1.9-0.5,2.9
		c0,1.2,0.2,2.3,0.6,3.3c0.6,1.6,1.7,3.1,3,4.1c1.4,1.1,3,1.7,4.8,1.9c0.2,0,0.5,0.1,0.7,0.1c0.2,0,0.3,0,0.5,0c0.9-0.1,1.8-0.2,2.7-0.5
		c3.5-1.3,6.1-4.6,6.1-8.6C191.5,301.3,190.8,299.3,189.6,297.7z M184.6,309.8c-0.6,0.2-1.3,0.4-2,0.4c-0.2,0-0.3,0-0.5,0
		c-0.7,0-1.3-0.1-1.9-0.3c-0.8-0.2-1.6-0.6-2.3-1.2c-0.2-0.2-0.5-0.4-0.7-0.6c-1.3-1.3-2-3-2-5c0-0.5,0.1-1,0.2-1.5c0.1-0.2,0.1-0.5,0.2-0.7
		c0.9-2.8,3.6-4.8,6.7-4.7c2.2,0,4.2,1.1,5.4,2.7c0.9,1.2,1.4,2.7,1.4,4.3C189.1,306.3,187.2,308.8,184.6,309.8z"/>
	<g>
		<path class="st10" d="M388.1,269c0,0-1.3-2.3,0.8-8.5c2-5.9,9-5.4,11.2-1.6c2.2,3.8,1.5,6.2-1.8,10.5
			C395,273.7,389.4,271,388.1,269z"/>
	</g>
	<g>
		<path class="st10" d="M404.3,374.9c0,0,0.3,2.5,0.4,2.9c0,0.4,3.8-0.2,3.8-0.2l0.3-3C408.8,374.6,404.7,374.6,404.3,374.9z"/>
	</g>
	<g>
		<path class="st11" d="M404.6,377.5c0,0-1.2,1.5-2.4,2.2c-1.2,0.7-3,0.9-3.7,1.6c-0.5,0.5-1.8,2.6,3,2.6c4.8,0,7.2,0.3,7.7-0.5
			c0.5-0.8-0.7-6-0.7-6S407.3,377.7,404.6,377.5z"/>
	</g>
	<g>
		<path class="st10" d="M378,374.9c0,0,0.3,2.5,0.4,2.9c0,0.4,3.8-0.2,3.8-0.2l0.3-3C382.5,374.6,378.5,374.6,378,374.9z"/>
	</g>
	<g>
		<path class="st12" d="M378.4,377.5c0,0-1.2,1.5-2.4,2.2c-1.2,0.7-5.4,1.2-6.1,1.9c-0.5,0.5-1.3,2.5,5.5,2.3
			c4.8-0.1,7.2,0.3,7.7-0.5c0.5-0.8-0.7-6-0.7-6S380.8,377.6,378.4,377.5z"/>
	</g>
	<g>
		<path class="st13" d="M403,312c0,0,1.9,6,1.7,11.3c-0.3,5.2,1,10.9,1.5,16.4c0.6,6.1,2.9,20.4,3,23.7c0.1,3.2-0.4,13.6-0.4,13.6
			l-4.7,0.1c0,0-4-25.1-5-27.7c-1-2.6-6.1-20.8-6.3-22.9C392.7,324.4,403,312,403,312z"/>
	</g>
	<g>
		<path class="st14" d="M383.5,311.3c0,0-2.9,16-3.2,19.2c-0.3,3.2-0.6,15.4-0.7,17.4c-0.2,2-1.1,26-2,29h5.3c0,0,5.4-17.5,5.4-25.8
			c0-8.3,3.6-18,5.9-23.5c2.3-5.5,7.6-5.6,9-15.7C403,312,385.4,308.1,383.5,311.3z"/>
	</g>
	<g>
		<path class="st10" d="M390,270.6c0,0,0.6,1.7,0,3c-0.6,1.2,7.6,0.5,7.6,0.5s-0.4-2.5,0.7-4.6C399.3,267.3,390,270.6,390,270.6z"/>
	</g>
	<g>
		<path class="st15" d="M403.4,313.3c0,0-2.9,3-20.2-0.5l0.3-1.5l19.6,0.7L403.4,313.3z"/>
	</g>
	<g>
		<path class="st10" d="M388.8,274c0,0-3,0.3-3.9,0.5c-0.9,0.2-6.7-1-7.9-1.2c-1.2-0.1-6.3-3.6-6.4-4c0-0.4-3.1-7.8-3.2-9.4
			c0-1.6-2.8-0.8-2.6,0.3c0.4,2.1,1,7.1,1.3,8.5c0.3,1.6,1.2,5.1,1.7,5.6c0.5,0.4,5.1,3.9,9.5,5.4c4.5,1.5,7.8,3.7,7.8,3.7h22
			c0,0,8.6-12.3,8.8-14.1c0.2-1.8-6-14.1-7.2-15.7c-1.2-1.5-3,0.5-3,0.5s3.7,10.8,4.2,12.4c0.5,1.5-4.3,8.3-5.6,8.3
			c-1.3,0-4.7-0.4-6.2-0.5c-1.5-0.1-3.1-0.7-3.1-0.7L388.8,274z"/>
	</g>
	<g>
		<path class="st16" d="M379.3,282.2c0,0,2.7,1.8,2.9,4.9s1.2,7.9,1.7,9.6c0.5,1.7-0.4,13.7-0.6,14.6c0,0.9,17.1,2.9,19.7,0.9
			c0,0,0.7-11.3,1-14.5c0.3-3.2,1.8-11,2.3-12c0.5-1,6.5-9.4,6.7-10.5c0,0-3.1-4.9-5.3-5c0,0-3.5,4.1-4.7,4.3c-1.1,0.2-8.2-1.1-8.2-1.1
			c0,0-0.8,1-4.8-0.2c0,0-4.9,0.5-5.6,0.6c-1,0.1-7.6-0.8-7.6-0.8s-2.7,4.5-2.2,6.8L379.3,282.2z"/>
	</g>
	<g>
		<path class="st10" d="M367.5,260.8c0,0-0.6-2.9,0.1-3.7c0.4-0.5,1.4-1.7,1.5-1.9c0.1-0.2,1.2-0.8,1.2-1.1c0-0.3-1-0.7-1.9,0.2
			c-0.9,0.8-1.5,1-1.8,0.9c-0.4-0.1-0.9-3.1-0.9-3.9c0-0.7-0.3-2.7-0.8-2.6c-0.5,0.1-0.4,1-0.4,1s-0.5-1.5-0.9-1.2
			c-0.4,0.3-0.3,1-0.3,1s-0.7-0.8-0.9-0.2c-0.2,0.6,0,1.2,0,1.2s-0.7-0.4-0.7,0.6c0,1,0.2,3.7,0.7,4.7c0.5,1,2.4,3.6,2.6,4.6
			C365,261.6,367.5,260.8,367.5,260.8z"/>
	</g>
	<g>
		<path class="st10" d="M406.3,255.8c0,0-2-3.4-2.7-3.8c-0.7-0.3-1.7-0.5-2.5-1.1c-0.9-0.6-2-1.1-1.9-1.3c0.1-0.2,1.1-0.1,2.2,0.3
			c1.1,0.5,1.6,0.2,1.7,0c0.1-0.2-0.6-2-0.9-2.4c-0.3-0.4-2.7-2.8-2.3-3.1c0.4-0.3,1.9,0.9,2.2,1.2c0,0-1.2-2.5-0.7-2.7
			c0.5-0.1,1.4,0.8,1.4,0.8s-0.1-2.2,2.2,1.3c0,0-0.5-1.2,0.2-0.8c0.7,0.4,1.4,2.6,1.6,3.7c0.2,1.1,1.2,4.6,2.1,5.5
			C409.5,254.4,406.3,255.8,406.3,255.8z"/>
	</g>
	<g>
		<path class="st18" d="M398.3,269.4c0,0-1.1,0.1-3.4-0.7c-2.3-0.8-2.5-4.8-3-4.3c-1,1-2,0.3-2.4-0.3c0,0,1.1-1.5,0.6-2.2
			c-0.5-0.7-1.4-1.2-1.4-1.2s1.6-7.8,9-4.2C406.4,260.6,398.3,269.4,398.3,269.4z"/>
	</g>
	<g>
		<path class="st16" d="M390,273.6l0.3-1.1c0,0,4.7-0.1,7.3,0.3l0.3,1.3C397.8,274.1,394.5,275.6,390,273.6z"/>
	</g>
	<g>
		<path class="st10" d="M391.1,263.4c0.4-0.7,2-1.2,2.2,0.8c0.1,1.6-2.8,3.3-2.8,1.8C390.5,264.6,390.9,263.9,391.1,263.4z"/>
	</g>
	<g>
		<path class="st17" d="M367.4,260.2c0,0-1.7,0-2.5,0.8c0,0,0,0.5,0.1,0.8c0,0,1.5-0.7,2.6-0.8C367.6,261,367.6,260.4,367.4,260.2z
			"/>
	</g>
	<g>
		<path class="st18" d="M365.4,260.6c-0.2,0.4,0,0.8,0.4,1c0.4,0.2,0.8,0,1-0.4c0.2-0.4,0-0.8-0.4-1C366,260.1,365.6,260.2,365.4,260.6z
			"/>
	</g>
	<g>
		<path class="st31" d="M218.9,360.8v28.2c0,2.8-2.2,5-5,5h-42.1c-2.8,0-5-2.2-5-5v-28.2c0-2.8,2.2-5,5-5h42.1
			C216.6,355.8,218.9,358,218.9,360.8z"/>
	</g>
	<g>
		<path class="st31" d="M339.2,360.8v28.2c0,2.8-2.2,5-5,5h-42.1c-2.8,0-5-2.2-5-5v-28.2c0-2.8,2.2-5,5-5h42.1
			C337,355.8,339.2,358,339.2,360.8z"/>
	</g>
	<g>
		<path class="st32" d="M275.5,221.2h-97c-4.8,0-8.8-3.9-8.8-8.8v-66.7c0-4.8,3.9-8.8,8.8-8.8h97c4.8,0,8.8,3.9,8.8,8.8v66.7
			C284.3,217.3,280.3,221.2,275.5,221.2z M178.5,137.6c-4.5,0-8.2,3.7-8.2,8.2v66.7c0,4.5,3.7,8.2,8.2,8.2h97c4.5,0,8.2-3.7,8.2-8.2
			v-66.7c0-4.5-3.7-8.2-8.2-8.2H178.5z"/>
	</g>
	<g>
		<polygon class="st8" points="123.5,433.9 124.1,433.8 120.9,353.5 176.3,353.5 179.5,433.9 180.1,433.8 176.9,352.8 120.3,352.8 
			"/>
	</g>
	<g>
		<polygon class="st8" points="118.3,433.9 121.5,353.5 176.9,353.5 173.7,433.8 174.3,433.9 177.5,352.8 120.9,352.8 117.7,433.8 
			"/>
	</g>
	<g>
		<polygon class="st8" points="174,407.7 118,407.7 121.2,327 177.2,327 		"/>
	</g>
	<g>
		<polygon class="st20" points="125.4,407.7 181.4,407.7 178.2,327 122.2,327 		"/>
	</g>
	<g>
		<rect x="169.6" y="376.5" class="st21" width="2.8" height="21.4"/>
	</g>
	<g>
		<rect x="164" y="378.9" class="st21" width="2.8" height="19"/>
	</g>
	<g>
		<rect x="158" y="382" class="st21" width="2.8" height="15.9"/>
	</g>
	<g>
		<rect x="151.7" y="385.9" class="st21" width="2.8" height="12"/>
	</g>
	<g>
		<polygon class="st21" points="135,383.4 134.3,383.2 139.6,368.3 151.2,365.2 155.3,348.9 164.2,345 166.2,332.3 166.8,332.4 
			164.8,345.4 155.8,349.4 151.7,365.8 140.1,368.8 		"/>
	</g>
	<g>
		<path class="st20" d="M152.8,364.4c0.6,0.7,0.5,1.8-0.2,2.4c-0.7,0.6-1.8,0.5-2.4-0.2c-0.6-0.7-0.5-1.8,0.2-2.4
			C151.1,363.6,152.2,363.7,152.8,364.4z"/>
	</g>
	<g>
		<path class="st21" d="M152.7,367.1c-0.9,0.7-2.2,0.6-2.9-0.3c-0.7-0.9-0.6-2.2,0.3-2.9c0.9-0.7,2.2-0.6,2.9,0.3
			C153.7,365.1,153.6,366.4,152.7,367.1z M150.5,364.4c-0.6,0.5-0.7,1.4-0.2,2c0.5,0.6,1.4,0.7,2,0.2c0.6-0.5,0.7-1.4,0.2-2
			C152,364,151.1,363.9,150.5,364.4z"/>
	</g>
	<g>
		<path class="st20" d="M157,348.1c0.6,0.7,0.5,1.8-0.2,2.4c-0.7,0.6-1.8,0.5-2.4-0.2c-0.6-0.7-0.5-1.8,0.2-2.4
			C155.3,347.3,156.4,347.4,157,348.1z"/>
	</g>
	<g>
		<path class="st21" d="M156.9,350.8c-0.9,0.7-2.2,0.6-2.9-0.3c-0.7-0.9-0.6-2.2,0.3-2.9c0.9-0.7,2.2-0.6,2.9,0.3
			C157.9,348.8,157.8,350.1,156.9,350.8z M154.7,348.1c-0.6,0.5-0.7,1.4-0.2,2c0.5,0.6,1.4,0.7,2,0.2c0.6-0.5,0.7-1.4,0.2-2
			C156.2,347.7,155.3,347.6,154.7,348.1z"/>
	</g>
	<g>
		<path class="st20" d="M165.7,344.1c0.6,0.7,0.5,1.8-0.2,2.4c-0.7,0.6-1.8,0.5-2.4-0.2c-0.6-0.7-0.5-1.8,0.2-2.4
			C164,343.3,165.1,343.4,165.7,344.1z"/>
	</g>
	<g>
		<path class="st21" d="M165.7,346.8c-0.9,0.7-2.2,0.6-2.9-0.3c-0.7-0.9-0.6-2.2,0.3-2.9c0.9-0.7,2.2-0.6,2.9,0.3
			C166.7,344.8,166.6,346.1,165.7,346.8z M163.5,344.1c-0.6,0.5-0.7,1.4-0.2,2c0.5,0.6,1.4,0.7,2,0.2c0.6-0.5,0.7-1.4,0.2-2
			C164.9,343.7,164.1,343.6,163.5,344.1z"/>
	</g>
	<g>
		<path class="st20" d="M141.3,367.6c0.6,0.7,0.5,1.8-0.2,2.4c-0.7,0.6-1.8,0.5-2.4-0.2c-0.6-0.7-0.5-1.8,0.2-2.4
			C139.6,366.8,140.7,366.9,141.3,367.6z"/>
	</g>
	<g>
		<path class="st21" d="M141.3,370.3c-0.9,0.7-2.2,0.6-2.9-0.3c-0.7-0.9-0.6-2.2,0.3-2.9c0.9-0.7,2.2-0.6,2.9,0.3
			C142.3,368.3,142.1,369.6,141.3,370.3z M139.1,367.6c-0.6,0.5-0.7,1.4-0.2,2c0.5,0.6,1.4,0.7,2,0.2c0.6-0.5,0.7-1.4,0.2-2
			C140.6,367.2,139.7,367.1,139.1,367.6z"/>
	</g>
	<g>
		<path class="st0" d="M321.9,163.2h-10.8c-2.4,0-4.3-1.9-4.3-4.3v-10.8c0-2.4,1.9-4.3,4.3-4.3h10.8c2.4,0,4.3,1.9,4.3,4.3v10.8
			C326.2,161.3,324.3,163.2,321.9,163.2z M311.1,144.6c-1.9,0-3.5,1.6-3.5,3.5v10.8c0,1.9,1.6,3.5,3.5,3.5h10.8c1.9,0,3.5-1.6,3.5-3.5
			v-10.8c0-1.9-1.6-3.5-3.5-3.5H311.1z"/>
	</g>
	<g>
		<path class="st0" d="M321.9,189h-10.8c-2.4,0-4.3-1.9-4.3-4.3v-10.8c0-2.4,1.9-4.3,4.3-4.3h10.8c2.4,0,4.3,1.9,4.3,4.3v10.8
			C326.2,187.1,324.3,189,321.9,189z M311.1,170.4c-1.9,0-3.5,1.6-3.5,3.5v10.8c0,1.9,1.6,3.5,3.5,3.5h10.8c1.9,0,3.5-1.6,3.5-3.5
			v-10.8c0-1.9-1.6-3.5-3.5-3.5H311.1z"/>
	</g>
	<g>
		<path class="st0" d="M321.9,214.5h-10.8c-2.2,0-3.9-1.7-3.9-3.9v-10.8c0-2.2,1.7-3.9,3.9-3.9h10.8c2.2,0,3.9,1.7,3.9,3.9v10.8
			C325.8,212.7,324.1,214.5,321.9,214.5z"/>
	</g>
	<g>
		<path class="st21" d="M315.9,209.2l-4.7-4.1c-0.4-0.3-0.4-0.9-0.1-1.3c0.3-0.4,0.9-0.4,1.3-0.1l3.3,2.9l4.8-5.3
			c0.3-0.4,0.9-0.4,1.3-0.1c0.4,0.3,0.4,0.9,0.1,1.3L315.9,209.2z"/>
	</g>
	<g>
		<path class="st0" d="M145.6,351.4h-14.8c-0.7,0-1.2-0.6-1.2-1.2v-1.1c0-0.7,0.6-1.2,1.2-1.2h14.8c0.7,0,1.2,0.6,1.2,1.2v1.1
			C146.9,350.8,146.3,351.4,145.6,351.4z"/>
	</g>
	<g>
		<path class="st0" d="M145.6,345.1h-14.8c-0.7,0-1.2-0.6-1.2-1.2v-1.1c0-0.7,0.6-1.2,1.2-1.2h14.8c0.7,0,1.2,0.6,1.2,1.2v1.1
			C146.9,344.6,146.3,345.1,145.6,345.1z"/>
	</g>
	<g>
		<path class="st22" d="M98.1,420.1c0,0,0.5,1.1,1.4,2.3c0.7,0.9,2.7,4.4,3.6,4.7c0.9,0.2,3.7,0.7,4,2.3c0.2,1.6,0.4,2.7-2.4,2.8
			c-2.8,0.1-4.6,0.3-5.9-1.7c-1.3-1.9-3.4-3.4-3.4-3.4v5.1h-1.1c0,0-0.5-5.3-0.8-5.7c-0.3-0.4-1-4.4,1.5-6.5
			C97.6,418,98.1,420.1,98.1,420.1z"/>
	</g>
	<g>
		<path class="st10" d="M103.1,427.1c0,0-2.5,0.6-3.4,0c-1,0.6-4.2-6.1-5.3-6.4c0,0,1-2.1,3.7-0.6C98.1,420.1,102.4,426.1,103.1,427.1z
			"/>
	</g>
	<g>
		<g>
			<path class="st10" d="M127.3,333.5c0,0,1.7,0.3,2.3-0.5c0.5-0.7,1.6-1.2,2-1.4c0.5-0.2,1.7-1.4,1.9-0.8c0.3,0.6-1.9,2.1-2.3,2.5
				c-0.4,0.4,2.1,0.6,2.5,1c0.4,0.4-0.1,4.5-1.8,4.2c-1.7-0.3-3.3-1.8-3.6-1.8c0,0-1.2-0.2-1.2-0.2L127.3,333.5z"/>
		</g>
	</g>
	<g>
		<g>
			<path class="st10" d="M133.5,334.1c0,0,5.1,1.3,5.4,1.7c0.3,0.4,0.2,0.7-0.3,0.5c-0.5-0.1-5-1.1-5-1.1s5.8,2.6,6.1,2.9
				c0.2,0.2,0,0.7-0.2,0.7c-0.3,0-6.2-2.3-6.2-2.3s5.4,2.4,5.6,2.7c0.2,0.3-0.1,0.7-0.5,0.6c-0.4-0.2-5.6-2.1-5.6-2.1s3.8,2,3.9,2.4
				c0,0.2,0,0.7-1.1,0.1c-1-0.6-3.4-1.6-3.4-1.6L133.5,334.1z"/>
		</g>
	</g>
	<g>
		<path class="st22" d="M84.2,423.4c0,0,2.8,4.1,3.9,5.1c0,0,2.5,0.9,2.7,2.6c0.2,1.7,0.2,2.9-2.7,3c-2.9,0.1-4.9-0.4-5.4-2.2
			c-0.5-1.8-1.7-3-1.7-3v3.7H80.3c0,0-0.2-3.6-0.2-4.3c0-0.7-0.5-3.2,0.9-4.3C82.4,422.9,84.2,423.4,84.2,423.4z"/>
	</g>
	<g>
		<path class="st23" d="M82.4,343.9c0,0-3.5,4.5-4.4,9.9c-0.9,5.4,0.6,23.5,0.5,26.2c0,2.7-2.5,9.3-2,14.3c0.5,5,2.5,30,2.5,30l5.4-1.1
			c0,0-0.3-25.5,0-27.6c0.3-2.1,0.9-9.8,1.1-10.7c0.1-0.9,7.9-23.7,7.9-27.6C93.2,353.6,90.8,337.6,82.4,343.9z"/>
	</g>
	<g>
		<path class="st23" d="M99.9,345.7c0,0,5.7,21.9,6.4,25c0.7,3,1.7,5.5,1.7,6.8c0,3-1.1,7.8-1.1,7.8l-7.3,34.9h-6.9
			c0,0,3.9-20.9,4-25c0.1-4.1,3.3-9.9,2.6-11.7c-0.6-1.7-10-21.8-10-21.8S82.2,339.3,99.9,345.7z"/>
	</g>
	<g>
		<path class="st10" d="M88.1,428.5c0,0-2.8,1.6-4.7-0.4c-1.5-1.7-2.4-4-2.4-4l3.2-0.7L88.1,428.5z"/>
	</g>
	<g>
		<path class="st8" d="M97.6,308.4c0,0,2.4,0.2,4.2,2.1c1.8,1.9,3.5,5,3.9,6c0.5,1,7,10.5,7.4,10.7c0.3,0.2,3.6,1.3,5.8,2.1
			c3.4,1.1,10.2,3.6,10.2,3.6l-1.3,4.3c0,0-12.7-4.2-15.9-5c-3.9-1-12.9-12.5-12.9-12.5S92.2,311.9,97.6,308.4z"/>
	</g>
	<g>
		<path class="st24" d="M93.4,306.8c0,0,3.1,1.5,4.1,1.7c1.1,0.2,5.2,5.6,5.9,7.5c0.7,2,0,4.9-1.5,8.4c-1.5,3.5-0.1,4.6-0.8,8.1
			c-0.7,3.5-0.5,16.4-0.3,18.3c0.1,1.9-20,4.8-23.9,1.3c0,0,2.7-11.6,5.9-15c0.7-0.7,0.6-5.5,0.1-6.7c-0.5-1.2-5.8-10.1-5.8-10.1
			s-0.4-9,1.9-10.8c2-1.6,7.5-2.1,8.4-2.5C88.6,306.6,91.4,306.5,93.4,306.8z"/>
	</g>
	<g>
		<path class="st10" d="M94.9,303.2c0,0-0.1,0.8-0.2,2c0,0.5,0,1,0,1.5c-0.1,1.5-0.2,3.2-0.2,4c0,0-3.2,3.2-6.8-3.7
			c0,0,1.5-2.9,0.4-6.7C86.8,296.3,94.9,303.2,94.9,303.2z"/>
	</g>
	<g>
		<path class="st25" d="M103.8,325.6c0,0,0.8-5.1,0-8.2c0,0,0,2.7-1.5,6.5L103.8,325.6z"/>
	</g>
	<g>
		<path class="st10" d="M85.1,307.4c0,0,2.2,6.5,8.2,6c6-0.5,2.9-5.5,2.9-5.5s-1.5-0.9-1.9-0.9c-0.4,0-6.7-0.2-6.7-0.2L85.1,307.4z"/>
	</g>
	<g>
		<path class="st8" d="M96.2,308c0,0,3.2,8.7,3.2,17.6c0,8.9,0.3,23.4,1.4,28c1.1,4.6,4.2,18.7,4.2,18.7l2.5-1.3
			c0,0-5.9-22.6-6.4-24.2c-0.4-1.6,0.3-18.8,0.8-20.3c0.4-1.4,2.2-7.9,1.9-9.6c-0.4-2.2-2.5-5.6-5.8-8.4L96.2,308z"/>
	</g>
	<g>
		<path class="st8" d="M86.3,307.2c0,0,2,6.3,3,14.3c1,8-3.1,45.4-5.8,53.9l-10.5-1.7c0,0,2.3-26.4,5.3-31.2
			c3.1-4.8,4-9.1,0.7-19.1c-3.3-10,1.5-15,1.5-15S85.4,307.3,86.3,307.2z"/>
	</g>
	<g>
		<polygon class="st26" points="97.7,333.8 84.9,355.9 70.8,347.7 83,325.3 		"/>
	</g>
	<g>
		<polygon class="st27" points="96.1,334.6 84.8,354.2 72.2,346.9 83.1,327 		"/>
	</g>
	<g>
		<polygon class="st26" points="92,332.8 92.8,331.4 87.7,328.5 86.7,329.7 		"/>
	</g>
	<g>
		<g>
			<path class="st10" d="M91.4,348.5c0,0-0.6,0-0.8-0.1c0,0-0.4-0.3-0.8-0.4c-0.1,0-0.2-0.1-0.3-0.1c-0.3-0.1-0.9-0.2-1.4-0.6
				c-0.6-0.4-2.6-2.7-2.6-2.7l0.9-1.4l0.7-1.5c0,0,4.2,0.3,4.8,0.6c0.1,0,0.1,0.1,0.2,0.1c0.5,0.3,0.7,0.7,0.9,0.9
				c0.1,0.1,0.8,0.8,0.8,1.1c0,0.4-0.2,0.7-0.5,0.9c0,0-0.1,0.9-0.5,1.3c0,0-0.1,0.8-0.7,1.1C92,347.6,91.8,348.3,91.4,348.5z"/>
		</g>
	</g>
	<g>
		<path class="st8" d="M82.7,308.4c0,0-3.9-1.1-6.1,3.2c-2.2,4.3-2.2,6.1-2.5,8.2c-0.3,2-1.5,7.3-1.7,7.9c-0.1,0.6-3,7.2-1.7,9.5
			c1.3,2.3,14.7,9.2,14.6,9.7c0,0.5,2.3-5.2,2.3-5.2s-5.4-3-6.3-3.9c-1.4-1.5-4.5-3.1-3.9-5c0.7-2.2,2.9-9.6,3.5-10.7
			C81.5,320.8,86,309.8,82.7,308.4z"/>
	</g>
	<g>
		<g>
			<path class="st10" d="M95.4,286.4c0,0,6.9,2.2,3.1,14.1c-3.7,11.9-13.1-1.4-12.2-8.6C87.3,284.6,95.4,286.4,95.4,286.4z"/>
		</g>
	</g>
	<g>
		<g>
			<path class="st7" d="M99.2,293.4c0,0-3.4,3.4-9.2,3.8c0,0-2.2,2.6-2.4,3.6c0,0-5.1-8.7,1.2-13.9C95.2,281.6,101.5,291.2,99.2,293.4z
				"/>
		</g>
	</g>
	<g>
		<g>
			<path class="st10" d="M90.1,297.4c0-0.9-0.6-2.8-1.9-2.3c-1.3,0.6,0.1,4.6,0.9,4.3C89.2,299.4,90.2,299.4,90.1,297.4z"/>
		</g>
	</g>
	<g>
		<path class="st28" d="M94.7,305.2c0,0.5,0,1,0,1.5c0,0-3-0.2-5.1-4.7C89.6,302.2,91.9,305.4,94.7,305.2z"/>
	</g>
	<g>
		<path class="st29" d="M89.8,277.3c-1.4,0-2.6-0.4-3.7-1.2c-1.2-0.9-1.9-2.1-2-3.4c-0.4-2.6-1.4-5.3-2.2-7.1
			c-3.4-2.3-5.5-6.2-5.5-10.3c0-6.9,5.6-12.4,12.4-12.4c6.9,0,12.4,5.6,12.4,12.4c0,3.7-1.6,7.2-4.5,9.6c-0.7,2.6-1.1,4.9-1.1,7
			c0.2,2.7-2.3,5.1-5.4,5.3C90.1,277.3,90,277.3,89.8,277.3z M89,244c-6.3,0-11.4,5.1-11.4,11.4c0,3.7,1.7,7.3,5.2,9.6
			c1.1,2.4,2.1,5,2.4,7.6l0,0c0.1,1,0.6,2,1.6,2.7c1,0.7,2.2,1,3.5,0.9c2.6-0.2,4.6-2.1,4.5-4.3l0,0c0-2.5,0.6-5.2,1.3-7.6
			c3-2.4,4.4-5.6,4.4-9C100.4,249.1,95.3,244,89,244z"/>
	</g>
	<g>
		<polygon class="st29" points="87.2,273.3 84.6,259.9 87.6,262 89.2,259.9 90.8,261.6 93.3,259.2 92.7,272.9 91.7,272.8 92.1,261.7 
			90.8,263.1 89.2,261.5 87.8,263.4 86.1,262.2 88.2,273.1 		"/>
	</g>
	<g>
		<rect x="85.9" y="276.1" transform="matrix(0.9976 -0.0688 0.0688 0.9976 -18.9037 6.8736)" class="st0" width="8.8" height="3.6"/>
	</g>
	<g>
		<rect x="84.3" y="272.5" transform="matrix(0.9976 -0.069 0.069 0.9976 -18.7737 6.8736)" class="st0" width="11.7" height="5.7"/>
	</g>
	<g>
		<polygon class="st30" points="380.7,429.6 365.6,383.2 414.6,383.2 429.6,429.1 428.2,429.6 413.6,384.6 367.6,384.6 382.1,429.1 	
			"/>
	</g>
	<g>
		<polygon class="st30" points="351.8,429.6 350.4,429.1 365.4,383.2 414.4,383.2 399.3,429.6 397.9,429.1 412.4,384.6 366.4,384.6 	
			"/>
	</g>
	<g>
		<polygon class="st30" points="418.6,398.6 361.6,398.6 361.6,397.2 417.8,397.2 		"/>
	</g>
	<g>
		<rect x="356.3" y="412.7" class="st30" width="67.3" height="1.4"/>
	</g>
	<g>
		<path class="st0" d="M329.6,317.9v101.9c0,3.6-2.9,6.6-6.6,6.6H218.8c-3.6,0-6.6-2.9-6.6-6.6V317.9c0-3.6,2.9-6.6,6.6-6.6H323
			C326.7,311.3,329.6,314.3,329.6,317.9z"/>
	</g>
	<g>
		<path class="st0" d="M325.8,241.2v3.2c0,2-1.6,3.6-3.6,3.6h-82c-2,0-3.6-1.6-3.6-3.6v-3.2c0-2,1.6-3.6,3.6-3.6h82
			C324.2,237.6,325.8,239.2,325.8,241.2z"/>
	</g>
	<g>
		<path class="st0" d="M322.2,266.9h-82c-2.3,0-4.2-1.9-4.2-4.2v-3.2c0-2.3,1.9-4.2,4.2-4.2h82c2.3,0,4.2,1.9,4.2,4.2v3.2
			C326.4,265,324.5,266.9,322.2,266.9z M240.2,256.4c-1.7,0-3.1,1.4-3.1,3.1v3.2c0,1.7,1.4,3.1,3.1,3.1h82c1.7,0,3.1-1.4,3.1-3.1v-3.2
			c0-1.7-1.4-3.1-3.1-3.1H240.2z"/>
	</g>
	<g>
		<path class="st0" d="M322.2,286.6h-82c-2.3,0-4.2-1.9-4.2-4.2v-3.2c0-2.3,1.9-4.2,4.2-4.2h82c2.3,0,4.2,1.9,4.2,4.2v3.2
			C326.4,284.7,324.5,286.6,322.2,286.6z M240.2,276.1c-1.7,0-3.1,1.4-3.1,3.1v3.2c0,1.7,1.4,3.1,3.1,3.1h82c1.7,0,3.1-1.4,3.1-3.1v-3.2
			c0-1.7-1.4-3.1-3.1-3.1H240.2z"/>
	</g>
	<g>
		<path class="st21" d="M299.8,361.8v4.3c0,2.1-1.7,3.9-3.9,3.9h-69.1c-2.1,0-3.9-1.7-3.9-3.9v-4.3c0-2.1,1.7-3.9,3.9-3.9h69.1
			C298,357.9,299.8,359.7,299.8,361.8z"/>
	</g>
	<g>
		<path class="st21" d="M299.8,342.6v4.3c0,2.1-1.7,3.9-3.9,3.9h-69.1c-2.1,0-3.9-1.7-3.9-3.9v-4.3c0-2.1,1.7-3.9,3.9-3.9h69.1
			C298,338.7,299.8,340.5,299.8,342.6z"/>
	</g>
	<g>
		<path class="st21" d="M241.2,411.7v2c0,0.4-0.3,0.7-0.7,0.7h-15.6c-0.4,0-0.7-0.3-0.7-0.7v-2c0-0.4,0.3-0.7,0.7-0.7h15.6
			C240.8,411,241.2,411.3,241.2,411.7z"/>
	</g>
	<g>
		<path class="st21" d="M261.5,411.7v2c0,0.4-0.3,0.7-0.7,0.7h-15.6c-0.4,0-0.7-0.3-0.7-0.7v-2c0-0.4,0.3-0.7,0.7-0.7h15.6
			C261.2,411,261.5,411.3,261.5,411.7z"/>
	</g>
	<g>
		<path class="st20" d="M282.1,411.7v2c0,0.4-0.3,0.7-0.7,0.7h-15.6c-0.4,0-0.7-0.3-0.7-0.7v-2c0-0.4,0.3-0.7,0.7-0.7h15.6
			C281.7,411,282.1,411.3,282.1,411.7z"/>
	</g>
	<g>
		<path class="st1" d="M234.5,100.9v66.7c0,4.7-3.8,8.5-8.5,8.5h-97c-4.7,0-8.5-3.8-8.5-8.5v-66.7c0-4.7,3.8-8.5,8.5-8.5h97
			C230.7,92.4,234.5,96.2,234.5,100.9z"/>
	</g>
	<g>
		<path class="st21" d="M222.4,105.7v2.8c0,1.3-1,2.3-2.3,2.3h-48.7c-1.3,0-2.3-1-2.3-2.3v-2.8c0-1.3,1-2.3,2.3-2.3h48.7
			C221.4,103.4,222.4,104.4,222.4,105.7z"/>
	</g>
	<g>
		<path class="st21" d="M222.4,120.1v3.8c0,1.3-1,2.3-2.3,2.3h-48.7c-1.3,0-2.3-1-2.3-2.3v-3.8c0-1.3,1-2.3,2.3-2.3h48.7
			C221.4,117.8,222.4,118.8,222.4,120.1z"/>
	</g>
	<g>
		<g>
			<path class="st21" d="M140.8,129.5c1.3,0.5,2.8,0.7,4.3,0.7c4.5,0.1,8.6-2.1,11.2-5.4c1.8-2.3,2.9-5.2,2.9-8.4
				c0-0.3,0-0.6,0-0.9c-0.1-1.4-0.4-2.7-0.8-4c-1.9-5.3-7-9.1-12.9-9.2c-3.2,0-6.2,1-8.6,2.8c-3.3,2.5-5.5,6.5-5.5,11
				C131.2,122.3,135.2,127.6,140.8,129.5z M134.8,116.2c0-3.3,1.6-6.3,4.1-8.2c1.8-1.4,4-2.2,6.5-2.1c4.5,0.1,8.2,2.9,9.7,6.9l0,0
				c0.3,0.9,0.6,2,0.6,3c0,0.2,0,0.5,0,0.7c0,2.4-0.8,4.5-2.2,6.3c-1.9,2.5-5,4.1-8.4,4c-1.1,0-2.2-0.2-3.2-0.5
				C137.7,124.8,134.7,120.8,134.8,116.2z"/>
		</g>
		<g>
			<path class="st21" d="M153.5,122.7l2.8,2.1c-2.6,3.3-6.7,5.5-11.2,5.4c-1.5,0-2.9-0.3-4.3-0.7l1.1-3.3
				c1,0.3,2.1,0.5,3.2,0.5C148.5,126.8,151.5,125.2,153.5,122.7z"/>
		</g>
		<g>
			<path class="st21" d="M155.7,115.7l3.5-0.2c0,0.3,0,0.6,0,0.9c0,3.2-1.1,6-2.9,8.4l-2.8-2.1c1.3-1.7,2.2-3.9,2.2-6.3
				C155.7,116.2,155.7,115.9,155.7,115.7z"/>
		</g>
		<g>
			<path class="st21" d="M155.7,115.7c-0.1-1-0.3-2.1-0.6-3l0,0l3.3-1.2c0.5,1.3,0.7,2.6,0.8,4L155.7,115.7z"/>
		</g>
		<g>
			<path class="st21" d="M136.8,105.2c2.4-1.8,5.4-2.8,8.6-2.8c6,0.1,11,3.9,12.9,9.2l-3.3,1.2l0,0c-1.4-4-5.2-6.8-9.7-6.9
				c-2.4,0-4.7,0.8-6.5,2.1L136.8,105.2z"/>
		</g>
	</g>
	<g>
		<polygon class="st21" points="131.3,163.1 150,148.6 166.3,157.4 189,140.2 205.3,149.4 222.4,137.7 222.4,163.1 		"/>
	</g>
</g>
</svg>